<svg width="92" height="53" viewBox="0 0 92 53" fill="none" xmlns="http://www.w3.org/2000/svg">
<path d="M15.936 7.824H20.928V30H15.936V20.592H7.552V30H2.56V7.824H7.552V16.304H15.936V7.824ZM31.5 7.824H36.492V30H31.5V7.824Z" fill="white"/>
<path d="M60.376 41.712V46H45.56V23.824H50.552V41.712H60.376ZM72.5983 34.896C72.5983 35.984 72.7263 36.9653 72.9823 37.84C73.2596 38.7147 73.6436 39.472 74.1343 40.112C74.6463 40.7307 75.2649 41.2107 75.9903 41.552C76.7156 41.8933 77.5476 42.064 78.4863 42.064C79.4036 42.064 80.2249 41.8933 80.9503 41.552C81.6969 41.2107 82.3156 40.7307 82.8063 40.112C83.3183 39.472 83.7023 38.7147 83.9583 37.84C84.2356 36.9653 84.3743 35.984 84.3743 34.896C84.3743 33.808 84.2356 32.8267 83.9583 31.952C83.7023 31.056 83.3183 30.2987 82.8063 29.68C82.3156 29.04 81.6969 28.5493 80.9503 28.208C80.2249 27.8667 79.4036 27.696 78.4863 27.696C77.5476 27.696 76.7156 27.8773 75.9903 28.24C75.2649 28.5813 74.6463 29.072 74.1343 29.712C73.6436 30.3307 73.2596 31.088 72.9823 31.984C72.7263 32.8587 72.5983 33.8293 72.5983 34.896ZM89.5263 34.896C89.5263 36.7947 89.2383 38.4693 88.6623 39.92C88.1076 41.3493 87.3396 42.5547 86.3583 43.536C85.3769 44.496 84.2036 45.2213 82.8383 45.712C81.4943 46.2027 80.0436 46.448 78.4863 46.448C76.9716 46.448 75.5423 46.2027 74.1983 45.712C72.8543 45.2213 71.6809 44.496 70.6783 43.536C69.6756 42.5547 68.8863 41.3493 68.3103 39.92C67.7343 38.4693 67.4463 36.7947 67.4463 34.896C67.4463 32.9973 67.7449 31.3333 68.3423 29.904C68.9396 28.4533 69.7396 27.2373 70.7423 26.256C71.7663 25.2747 72.9396 24.5387 74.2623 24.048C75.6063 23.5573 77.0143 23.312 78.4863 23.312C80.0009 23.312 81.4303 23.5573 82.7743 24.048C84.1183 24.5387 85.2916 25.2747 86.2943 26.256C87.2969 27.2373 88.0863 28.4533 88.6623 29.904C89.2383 31.3333 89.5263 32.9973 89.5263 34.896Z" fill="white"/>
<rect x="45" y="9" width="45" height="5" fill="white"/>
<rect x="2" y="41" width="35" height="5" fill="white"/>
</svg>
